<?xml version="1.0" encoding="utf-8"?>
<!-- Generator: Adobe Illustrator 23.0.0, SVG Export Plug-In . SVG Version: 6.00 Build 0)  -->
<svg version="1.1" id="Camada_1" xmlns="http://www.w3.org/2000/svg" xmlns:xlink="http://www.w3.org/1999/xlink" x="0px" y="0px"
	 viewBox="0 0 1920 1080" style="enable-background:new 0 0 1920 1080;" xml:space="preserve">
<style type="text/css">
	.st0{fill:#9CD1F2;}
	.st1{fill:#8FC4E8;}
	.st2{fill:#A5CFEB;}
	.st3{fill:#AAC164;}
	.st4{fill:#91A558;}
	.st5{fill:#6E5031;}
	.st6{fill:#815C3A;}
	.st7{fill:#93745A;}
</style>
<g>
	<rect x="0" y="-3" class="st0" width="1920" height="1076"/>
	<polygon class="st1" points="1920,832.9 1920,247.1 1906.1,247.1 1906.1,294.5 1880.3,294.5 1880.3,247.1 1838.5,247.1 
		1838.5,278.1 1770.9,278.1 1770.9,325.5 1711.3,325.5 1711.3,247.1 1663.5,247.1 1663.5,292.8 1597.9,292.8 1597.9,247.1 
		1552.2,247.1 1552.2,289.6 1496.5,289.6 1496.5,247.1 1430.9,247.1 1430.9,266.7 1339.4,266.7 1339.4,247.1 1283.7,247.1 
		1283.7,304.3 1230,304.3 1230,247.1 1188.3,247.1 1188.3,278.1 1110.7,278.1 1110.7,315.7 1037.2,315.7 1037.2,263.4 987.4,263.4 
		987.4,291.2 943.7,291.2 943.7,258.5 882,258.5 882,297.7 790.6,297.7 790.6,247.1 717,247.1 717,271.6 655.4,271.6 655.4,247.1 
		599.7,247.1 599.7,270 516.2,270 516.2,310.8 462.5,310.8 462.5,247.1 414.7,247.1 414.7,281.4 347.1,281.4 347.1,247.1 
		313.3,247.1 313.3,268.3 209.9,268.3 209.9,320.6 162.2,320.6 162.2,247.1 90.6,247.1 90.6,276.5 0,276.5 0,832.9 	"/>
	<polygon class="st2" points="1920,979 1920,497.2 1906.1,497.2 1906.1,536.2 1880.3,536.2 1880.3,497.2 1838.5,497.2 1838.5,522.7 
		1770.9,522.7 1770.9,561.7 1711.3,561.7 1711.3,497.2 1663.5,497.2 1663.5,534.8 1597.9,534.8 1597.9,497.2 1552.2,497.2 
		1552.2,532.1 1496.5,532.1 1496.5,497.2 1430.9,497.2 1430.9,513.3 1339.4,513.3 1339.4,497.2 1283.7,497.2 1283.7,544.2 
		1230,544.2 1230,497.2 1188.3,497.2 1188.3,522.7 1110.7,522.7 1110.7,553.6 1037.2,553.6 1037.2,510.6 987.4,510.6 987.4,533.5 
		943.7,533.5 943.7,506.6 882,506.6 882,538.8 790.6,538.8 790.6,497.2 717,497.2 717,517.3 655.4,517.3 655.4,497.2 599.7,497.2 
		599.7,516 516.2,516 516.2,549.6 462.5,549.6 462.5,497.2 414.7,497.2 414.7,525.4 347.1,525.4 347.1,497.2 313.3,497.2 
		313.3,514.7 209.9,514.7 209.9,557.7 162.2,557.7 162.2,497.2 90.6,497.2 90.6,521.4 0,521.4 0,979 	"/>
</g>
<g>
	<g>
		<g>
			<path class="st3" d="M1921,985.3H0v-82.1c624.3-102.9,1265.4-98,1921,0V985.3z"/>
			<polygon class="st4" points="1359.6,924.7 1359.6,937.3 1332.4,937.3 1332.4,949.9 1269.9,949.9 1269.9,960.4 1210,960.4 
				1210,942.5 1182.8,942.5 1182.8,937.3 1128.4,937.3 1128.4,931 1079.4,931 1079.4,946.7 1054.9,946.7 1054.9,969.9 1027.7,969.9 
				1027.7,946.7 984.2,946.7 984.2,925.7 954.3,925.7 954.3,955.2 856.3,955.2 856.3,926.8 766.5,926.8 766.5,947.8 717.6,947.8 
				717.6,958.3 655,958.3 655,944.6 633.2,944.6 633.2,951 570.7,951 570.7,917.3 513.5,917.3 513.5,934.1 429.2,934.1 429.2,945.7 
				306.8,945.7 306.8,975.2 252.3,975.2 252.3,934.1 181.6,934.1 181.6,948.9 89.1,948.9 89.1,969.9 0,969.9 0,985.3 1399.7,985.3 
				1399.7,924.7 			"/>
			<rect x="0" y="985.3" class="st5" width="1399.7" height="94.7"/>
			<polygon class="st6" points="1354.2,1028.4 1399.7,1028.4 1399.7,1020 1370.5,1020 1370.5,994 1294.3,994 1294.3,1008.9 
				1210,1008.9 1210,985.3 1180.1,985.3 1180.1,1005.2 1142,1005.2 1142,1012.6 1093,1012.6 1093,1005.2 1019.6,1005.2 
				1019.6,1016.3 948.8,1016.3 948.8,985.3 935.2,985.3 935.2,1003.3 850.9,1003.3 850.9,1022.8 747.5,1022.8 747.5,1008 
				679.5,1008 679.5,999.6 657.7,999.6 657.7,1028.4 581.5,1028.4 581.5,1009.8 543.5,1009.8 543.5,1023.8 475.4,1023.8 475.4,1008 
				412.9,1008 412.9,994.9 388.4,994.9 388.4,1005.2 366.6,1005.2 366.6,1020 320.4,1020 320.4,1005.2 260.5,1005.2 260.5,1023.8 
				214.3,1023.8 214.3,999.6 127.2,999.6 127.2,1009.8 53.7,1009.8 53.7,1026.6 0,1026.6 0,1043.3 64.6,1043.3 64.6,1069 100,1069 
				100,1034.9 151.7,1034.9 151.7,1051.7 189.8,1051.7 189.8,1040.5 274.1,1040.5 274.1,1055.4 314.9,1055.4 314.9,1041.4 
				393.8,1041.4 393.8,1058.2 453.7,1058.2 453.7,1046.1 505.4,1046.1 505.4,1049.8 581.5,1049.8 581.5,1040.5 714.8,1040.5 
				714.8,1034.9 880.8,1034.9 880.8,1055.4 905.3,1055.4 905.3,1044.2 1038.6,1044.2 1038.6,1069 1090.3,1069 1090.3,1028.4 
				1144.7,1028.4 1144.7,1047.9 1185.5,1047.9 1185.5,1034 1280.7,1034 1280.7,1061.9 1346,1061.9 1346,1049.8 1354.2,1049.8 			"/>
		</g>
		<path class="st7" d="M1348.1,1003.2h13.5v-0.2C1357.1,1003,1352.6,1003.1,1348.1,1003.2z"/>
		<rect x="1223.6" y="972.7" class="st5" width="43.5" height="13.7"/>
		<rect x="791" y="972.7" class="st5" width="43.5" height="13.7"/>
		<rect x="562.5" y="972.7" class="st5" width="43.5" height="13.7"/>
		<rect x="387" y="1025.8" class="st5" width="36.1" height="13.7"/>
		<rect x="468" y="1036.5" class="st5" width="36" height="13.7"/>
		<rect x="687.9" y="1017.6" class="st5" width="36" height="13.7"/>
		<rect x="652.3" y="1037.7" class="st5" width="36" height="13.7"/>
		<rect x="786.9" y="1022" class="st5" width="36.1" height="13.7"/>
		<rect x="895.8" y="1025.8" class="st5" width="36" height="13.7"/>
		<rect x="957" y="1032.7" class="st5" width="36" height="13.7"/>
		<rect x="1042" y="1015.1" class="st5" width="36.1" height="13.7"/>
		<rect x="1135.5" y="1019.9" class="st5" width="36" height="13.7"/>
		<rect x="1280.6" y="1015.1" class="st5" width="36" height="13.7"/>
		<rect x="1308.3" y="1039.5" class="st5" width="36" height="13.7"/>
		<rect x="1223.6" y="1032.7" class="st5" width="36" height="13.7"/>
		<rect x="1067.6" y="1054.9" class="st5" width="36" height="13.7"/>
		<rect x="314.9" y="1039.5" class="st5" width="36.1" height="13.7"/>
		<rect x="189.8" y="1040.5" class="st5" width="36.1" height="13.7"/>
		<rect x="126.3" y="1012.1" class="st5" width="36" height="13.7"/>
		<rect x="32" y="1031.6" class="st5" width="36.1" height="13.7"/>
		<rect x="374.8" y="972.7" class="st5" width="43.5" height="13.7"/>
		<rect x="921.6" y="978.8" class="st5" width="43.5" height="13.7"/>
		<rect x="1063.8" y="978.5" class="st5" width="43.5" height="13.7"/>
		<rect x="165.3" y="978.5" class="st5" width="43.5" height="13.7"/>
		<rect x="331.2" y="979.5" class="st4" width="43.5" height="13.7"/>
		<rect x="460.5" y="978.8" class="st4" width="43.5" height="13.7"/>
		<rect x="630.5" y="982.4" class="st4" width="43.5" height="13.7"/>
		<rect x="718.9" y="978.8" class="st4" width="43.5" height="13.7"/>
		<rect x="878.1" y="982.4" class="st4" width="43.5" height="13.7"/>
		<rect x="998.5" y="982.4" class="st4" width="43.5" height="13.7"/>
		<rect x="1131.8" y="982.4" class="st4" width="43.5" height="13.7"/>
		<rect x="1292.3" y="974.3" class="st4" width="43.5" height="13.7"/>
		<rect x="240.1" y="982.4" class="st4" width="43.5" height="13.7"/>
		<rect x="70.1" y="978.5" class="st4" width="43.5" height="13.7"/>
	</g>
	<g>
		<g>
			<rect x="1365.5" y="903" class="st3" width="555.5" height="82.2"/>
			<polygon class="st4" points="1921,917.1 1879,917.1 1879,933.9 1794.7,933.9 1794.7,945.5 1672.3,945.5 1672.3,975 1617.9,975 
				1617.9,933.9 1547.1,933.9 1547.1,948.7 1454.6,948.7 1454.6,969.7 1365.5,969.7 1365.5,985.2 1921,985.2 			"/>
			<rect x="1365.5" y="985.2" class="st5" width="555.5" height="94.8"/>
			<polygon class="st6" points="1921,1047.1 1921,1009.9 1909,1009.9 1909,1022.9 1840.9,1022.9 1840.9,1008.2 1778.4,1008.2 
				1778.4,996.1 1753.9,996.1 1753.9,1005.6 1732.1,1005.6 1732.1,1019.4 1685.9,1019.4 1685.9,1005.6 1626,1005.6 1626,1022.9 
				1579.8,1022.9 1579.8,1000.4 1492.7,1000.4 1492.7,1009.9 1419.3,1009.9 1419.3,1025.5 1365.5,1025.5 1365.5,1041.1 
				1430.1,1041.1 1430.1,1065 1465.5,1065 1465.5,1033.3 1517.2,1033.3 1517.2,1048.9 1555.3,1048.9 1555.3,1038.5 1639.6,1038.5 
				1639.6,1052.3 1680.4,1052.3 1680.4,1039.3 1759.3,1039.3 1759.3,1054.9 1819.2,1054.9 1819.2,1043.7 1870.9,1043.7 
				1870.9,1047.1 			"/>
		</g>
		<rect x="1752.5" y="1025.7" class="st5" width="36" height="13.7"/>
		<rect x="1833.5" y="1036.5" class="st5" width="36" height="13.7"/>
		<rect x="1680.4" y="1039.4" class="st5" width="36" height="13.7"/>
		<rect x="1555.3" y="1040.4" class="st5" width="36" height="13.7"/>
		<rect x="1491.8" y="1012" class="st5" width="36" height="13.7"/>
		<rect x="1397.5" y="1031.5" class="st5" width="36.1" height="13.7"/>
		<rect x="1740.3" y="972.5" class="st5" width="43.5" height="13.7"/>
		<rect x="1530.8" y="978.3" class="st5" width="43.5" height="13.7"/>
		<rect x="1696.8" y="979.4" class="st4" width="43.5" height="13.7"/>
		<rect x="1826" y="978.7" class="st4" width="43.5" height="13.7"/>
		<rect x="1605.6" y="982.3" class="st4" width="43.5" height="13.7"/>
		<rect x="1435.6" y="978.3" class="st4" width="43.5" height="13.7"/>
	</g>
</g>
</svg>
