<?xml version="1.0" encoding="utf-8"?>
<!-- Generator: Adobe Illustrator 23.0.0, SVG Export Plug-In . SVG Version: 6.00 Build 0)  -->
<svg version="1.1" id="Camada_1" xmlns="http://www.w3.org/2000/svg" xmlns:xlink="http://www.w3.org/1999/xlink" x="0px" y="0px"
	 viewBox="0 0 20 20" style="enable-background:new 0 0 20 20;" xml:space="preserve">
<style type="text/css">
	.st0{fill:#603813;}
</style>
<path class="st0" d="M1.2,4.3h16.7c0.4,0,0.6-0.3,0.6-0.7V1.7c0-0.4-0.3-0.7-0.6-0.7H1.2C0.9,1,0.6,1.3,0.6,1.7v1.8
	C0.6,4,0.9,4.3,1.2,4.3z M5,11.7h13.1c0.3,0,0.5-0.3,0.5-0.7V9.1c0-0.4-0.2-0.7-0.5-0.7H5c-0.3,0-0.5,0.3-0.5,0.7v1.8
	C4.5,11.3,4.7,11.7,5,11.7z M1.2,19h16.7c0.4,0,0.6-0.3,0.6-0.7v-1.8c0-0.4-0.3-0.7-0.6-0.7H1.2c-0.4,0-0.6,0.3-0.6,0.7v1.8
	C0.6,18.7,0.9,19,1.2,19z"/>
</svg>
