<?xml version="1.0" encoding="utf-8"?>
<!-- Generator: Adobe Illustrator 23.0.0, SVG Export Plug-In . SVG Version: 6.00 Build 0)  -->
<svg version="1.1" id="Camada_1" xmlns="http://www.w3.org/2000/svg" xmlns:xlink="http://www.w3.org/1999/xlink" x="0px" y="0px"
	 viewBox="0 0 20 20" style="enable-background:new 0 0 20 20;" xml:space="preserve">
<style type="text/css">
	.st0{fill:#8D3926;}
</style>
<path class="st0" d="M3.1,5.6h13c0.3,0,0.5-0.2,0.5-0.5V3.5c0-0.3-0.2-0.5-0.5-0.5h-13C2.8,3,2.6,3.2,2.6,3.5v1.4
	C2.6,5.3,2.8,5.6,3.1,5.6z M6,11.3h10.2c0.2,0,0.4-0.2,0.4-0.5V9.3c0-0.3-0.2-0.5-0.4-0.5H6C5.8,8.8,5.6,9,5.6,9.3v1.4
	C5.6,11,5.8,11.3,6,11.3z M3.1,17h13c0.3,0,0.5-0.2,0.5-0.5v-1.4c0-0.3-0.2-0.5-0.5-0.5h-13c-0.3,0-0.5,0.2-0.5,0.5v1.4
	C2.6,16.8,2.8,17,3.1,17z"/>
</svg>
