<?xml version="1.0" encoding="utf-8"?>
<!-- Generator: Adobe Illustrator 23.0.0, SVG Export Plug-In . SVG Version: 6.00 Build 0)  -->
<svg version="1.1" id="Camada_1" xmlns="http://www.w3.org/2000/svg" xmlns:xlink="http://www.w3.org/1999/xlink" x="0px" y="0px"
	 viewBox="0 0 102 54" style="enable-background:new 0 0 102 54;" xml:space="preserve">
<style type="text/css">
	.st0{fill:#CCE4F2;}
	.st1{fill:#FFFFFF;}
</style>
<g>
	<polygon class="st0" points="93.6,48.6 93.6,46.8 91.6,46.8 91.6,45.1 89.5,45.1 89.5,43.4 89.5,41.7 87.5,41.7 87.5,40 87.5,38.2 
		87.5,36.5 87.5,34.8 87.5,33.1 87.5,31.3 87.5,29.6 85.5,29.6 85.5,31.3 83.5,31.3 83.5,33.1 81.5,33.1 79.4,33.1 77.4,33.1 
		75.4,33.1 73.4,33.1 71.4,33.1 71.4,31.3 69.3,31.3 69.3,29.6 67.3,29.6 67.3,27.9 65.3,27.9 65.3,29.6 63.3,29.6 63.3,31.3 
		63.3,33.1 61.3,33.1 61.3,34.8 59.2,34.8 59.2,36.5 57.2,36.5 57.2,38.2 55.2,38.2 53.2,38.2 53.2,40 51.2,40 49.1,40 47.1,40 
		45.1,40 43.1,40 41,40 39,40 37,40 37,38.2 35,38.2 33,38.2 33,36.5 30.9,36.5 30.9,34.8 28.9,34.8 28.9,33.1 26.9,33.1 24.9,33.1 
		24.9,34.8 22.9,34.8 22.9,36.5 20.8,36.5 18.8,36.5 16.8,36.5 14.8,36.5 12.8,36.5 10.7,36.5 10.7,34.8 8.7,34.8 8.7,33.1 
		6.7,33.1 6.7,31.3 6.7,29.6 4.7,29.6 4.7,27.9 4.7,26.2 4.7,24.5 4.7,22.7 2.7,22.7 2.7,24.5 2.7,26.2 2.7,27.9 0.6,27.9 0.6,29.6 
		0.6,31.3 0.6,33.1 0.6,34.8 0.6,36.5 0.6,38.2 2.7,38.2 2.7,40 2.7,41.7 2.7,43.4 4.7,43.4 4.7,45.1 4.7,46.8 6.7,46.8 6.7,48.6 
		8.7,48.6 8.7,50.3 10.7,50.3 12.8,50.3 12.8,52 14.8,52 16.8,52 18.8,52 20.8,52 22.9,52 24.9,52 26.9,52 28.9,52 30.9,52 33,52 
		35,52 37,52 39,52 41,52 43.1,52 45.1,52 47.1,52 49.1,52 51.2,52 53.2,52 55.2,52 57.2,52 59.2,52 61.3,52 63.3,52 65.3,52 
		67.3,52 69.3,52 71.4,52 73.4,52 75.4,52 77.4,52 79.4,52 81.5,52 83.5,52 85.5,52 87.5,52 89.5,52 91.6,52 93.6,52 93.6,50.3 
		95.6,50.3 95.6,48.6 	"/>
	<polygon class="st1" points="99.7,33.1 99.7,31.3 99.7,29.6 97.6,29.6 97.6,27.9 95.6,27.9 95.6,26.2 93.6,26.2 93.6,24.5 
		91.6,24.5 89.5,24.5 87.5,24.5 87.5,22.7 87.5,21 87.5,19.3 85.5,19.3 85.5,17.6 85.5,15.9 85.5,14.1 83.5,14.1 83.5,12.4 
		81.5,12.4 81.5,10.7 79.4,10.7 79.4,9 77.4,9 77.4,7.3 75.4,7.3 73.4,7.3 71.4,7.3 69.3,7.3 67.3,7.3 65.3,7.3 63.3,7.3 61.3,7.3 
		61.3,9 59.2,9 59.2,7.3 59.2,5.5 57.2,5.5 57.2,3.8 55.2,3.8 53.2,3.8 53.2,2.1 51.2,2.1 51.2,0.4 49.1,0.4 47.1,0.4 45.1,0.4 
		43.1,0.4 41,0.4 39,0.4 39,2.1 37,2.1 35,2.1 35,3.8 33,3.8 33,5.5 30.9,5.5 30.9,7.3 28.9,7.3 28.9,9 26.9,9 26.9,10.7 26.9,12.4 
		26.9,14.1 24.9,14.1 22.9,14.1 20.8,14.1 18.8,14.1 16.8,14.1 14.8,14.1 12.8,14.1 12.8,15.9 10.7,15.9 8.7,15.9 8.7,17.6 
		6.7,17.6 6.7,19.3 4.7,19.3 4.7,21 4.7,22.7 4.7,24.5 4.7,26.2 4.7,27.9 4.7,29.6 6.7,29.6 6.7,31.3 6.7,33.1 8.7,33.1 8.7,34.8 
		10.7,34.8 10.7,36.5 12.8,36.5 14.8,36.5 16.8,36.5 18.8,36.5 20.8,36.5 22.9,36.5 22.9,34.8 24.9,34.8 24.9,33.1 26.9,33.1 
		28.9,33.1 28.9,34.8 30.9,34.8 30.9,36.5 33,36.5 33,38.2 35,38.2 37,38.2 37,40 39,40 41,40 43.1,40 45.1,40 47.1,40 49.1,40 
		51.2,40 53.2,40 53.2,38.2 55.2,38.2 57.2,38.2 57.2,36.5 59.2,36.5 59.2,34.8 61.3,34.8 61.3,33.1 63.3,33.1 63.3,31.3 63.3,29.6 
		65.3,29.6 65.3,27.9 67.3,27.9 67.3,29.6 69.3,29.6 69.3,31.3 71.4,31.3 71.4,33.1 73.4,33.1 75.4,33.1 77.4,33.1 79.4,33.1 
		81.5,33.1 83.5,33.1 83.5,31.3 85.5,31.3 85.5,29.6 87.5,29.6 87.5,31.3 87.5,33.1 87.5,34.8 87.5,36.5 87.5,38.2 87.5,40 
		87.5,41.7 89.5,41.7 89.5,43.4 89.5,45.1 91.6,45.1 91.6,46.8 93.6,46.8 93.6,48.6 95.6,48.6 95.6,50.3 97.6,50.3 97.6,48.6 
		97.6,46.8 99.7,46.8 99.7,45.1 101.7,45.1 101.7,43.4 101.7,41.7 101.7,40 101.7,38.2 101.7,36.5 101.7,34.8 101.7,33.1 	"/>
</g>
</svg>
