<?xml version="1.0" encoding="utf-8"?>
<!-- Generator: Adobe Illustrator 23.0.0, SVG Export Plug-In . SVG Version: 6.00 Build 0)  -->
<svg version="1.1" id="Camada_1" xmlns="http://www.w3.org/2000/svg" xmlns:xlink="http://www.w3.org/1999/xlink" x="0px" y="0px"
	 viewBox="0 0 389 123" style="enable-background:new 0 0 389 123;" xml:space="preserve">
<style type="text/css">
	.st0{fill:#885D2D;}
	.st1{fill:#966431;}
	.st2{fill:#74512A;}
	.st3{fill:none;stroke:#483217;stroke-width:9.9456;stroke-miterlimit:10;}
</style>
<g>
	<g>
		<g>
			<g>
				<rect x="106" y="9" class="st0" width="136.5" height="106.8"/>
				<polygon class="st1" points="242.5,53.3 230.3,53.3 230.3,19.8 179.8,19.8 179.8,34 137.2,34 137.2,57.1 106,57.1 106,80.3 
					143.5,80.3 143.5,115.9 164,115.9 164,68.7 194,68.7 194,91.9 216.1,91.9 216.1,76.4 242.5,76.4 				"/>
			</g>
			<rect x="216.1" y="67.5" class="st2" width="20.9" height="16.7"/>
			<rect x="179.3" y="32.9" class="st2" width="20.9" height="16.7"/>
			<rect x="124.6" y="56.7" class="st2" width="20.9" height="16.7"/>
		</g>
		<line class="st3" x1="106" y1="44.5" x2="242.5" y2="44.5"/>
		<line class="st3" x1="106" y1="86.8" x2="242.5" y2="86.8"/>
		<line class="st3" x1="176.6" y1="9" x2="176.6" y2="44.5"/>
		<line class="st3" x1="176.6" y1="85.1" x2="176.6" y2="115.9"/>
		<line class="st3" x1="132.7" y1="45" x2="132.7" y2="85.1"/>
		<line class="st3" x1="217.5" y1="45" x2="217.5" y2="85.1"/>
		<rect x="106" y="9" class="st3" width="136.5" height="106.8"/>
	</g>
	<g>
		<g>
			<g>
				<rect x="245.5" y="9" class="st0" width="136.5" height="106.8"/>
				<polygon class="st1" points="382,53.3 369.8,53.3 369.8,19.8 319.3,19.8 319.3,34 276.7,34 276.7,57.1 245.5,57.1 245.5,80.3 
					283,80.3 283,115.9 303.5,115.9 303.5,68.7 333.5,68.7 333.5,91.9 355.6,91.9 355.6,76.4 382,76.4 				"/>
			</g>
			<rect x="355.6" y="67.5" class="st2" width="20.9" height="16.7"/>
			<rect x="318.8" y="32.9" class="st2" width="20.9" height="16.7"/>
			<rect x="264.1" y="56.7" class="st2" width="20.9" height="16.7"/>
		</g>
		<line class="st3" x1="245.5" y1="44.5" x2="382" y2="44.5"/>
		<line class="st3" x1="245.5" y1="86.8" x2="382" y2="86.8"/>
		<line class="st3" x1="316.1" y1="9" x2="316.1" y2="44.5"/>
		<line class="st3" x1="316.1" y1="85.1" x2="316.1" y2="115.9"/>
		<line class="st3" x1="272.2" y1="45" x2="272.2" y2="85.1"/>
		<line class="st3" x1="357" y1="45" x2="357" y2="85.1"/>
		<rect x="245.5" y="9" class="st3" width="136.5" height="106.8"/>
	</g>
	<g>
		<g>
			<g>
				<rect x="4.9" y="9" class="st0" width="101.3" height="106.8"/>
				<polygon class="st1" points="106.1,53.3 97.1,53.3 97.1,19.8 59.6,19.8 59.6,34 28,34 28,57.1 4.9,57.1 4.9,80.3 32.7,80.3 
					32.7,115.9 47.9,115.9 47.9,68.7 70.2,68.7 70.2,91.9 86.6,91.9 86.6,76.4 106.1,76.4 				"/>
			</g>
			<rect x="86.6" y="67.5" class="st2" width="15.5" height="16.7"/>
			<rect x="59.2" y="32.9" class="st2" width="15.5" height="16.7"/>
			<rect x="18.6" y="56.7" class="st2" width="15.5" height="16.7"/>
		</g>
		<line class="st3" x1="4.9" y1="44.5" x2="106.1" y2="44.5"/>
		<line class="st3" x1="4.9" y1="86.8" x2="106.1" y2="86.8"/>
		<line class="st3" x1="57.2" y1="9" x2="57.2" y2="44.5"/>
		<line class="st3" x1="57.2" y1="85.1" x2="57.2" y2="115.9"/>
		<line class="st3" x1="24.7" y1="45" x2="24.7" y2="85.1"/>
		<line class="st3" x1="87.6" y1="45" x2="87.6" y2="85.1"/>
		<rect x="4.9" y="9" class="st3" width="101.3" height="106.8"/>
	</g>
</g>
</svg>
