<?xml version="1.0" encoding="utf-8"?>
<!-- Generator: Adobe Illustrator 23.0.0, SVG Export Plug-In . SVG Version: 6.00 Build 0)  -->
<svg version="1.1" id="Camada_1" xmlns="http://www.w3.org/2000/svg" xmlns:xlink="http://www.w3.org/1999/xlink" x="0px" y="0px"
	 viewBox="0 0 154 122" style="enable-background:new 0 0 154 122;" xml:space="preserve">
<style type="text/css">
	.st0{fill:#5E2416;}
	.st1{fill:#6D2618;}
	.st2{fill:#74512A;}
	.st3{fill:none;stroke:#483217;stroke-width:9.9456;stroke-miterlimit:10;}
</style>
<g>
	<g>
		<g>
			<g>
				<rect x="6.4" y="7.2" class="st0" width="140.3" height="109.8"/>
				<polygon class="st1" points="146.7,52.7 134.2,52.7 134.2,18.3 82.2,18.3 82.2,32.8 38.4,32.8 38.4,56.6 6.4,56.6 6.4,80.4 
					44.9,80.4 44.9,117 66,117 66,68.5 96.8,68.5 96.8,92.3 119.6,92.3 119.6,76.5 146.7,76.5 				"/>
			</g>
			<rect x="119.6" y="67.3" class="st2" width="21.5" height="17.2"/>
			<rect x="81.7" y="31.7" class="st2" width="21.5" height="17.2"/>
			<rect x="25.4" y="56.2" class="st2" width="21.5" height="17.2"/>
		</g>
		<line class="st3" x1="6.4" y1="43.6" x2="146.7" y2="43.6"/>
		<line class="st3" x1="6.4" y1="87.1" x2="146.7" y2="87.1"/>
		<line class="st3" x1="78.9" y1="7.2" x2="78.9" y2="43.6"/>
		<line class="st3" x1="78.9" y1="85.3" x2="78.9" y2="117"/>
		<line class="st3" x1="33.8" y1="44.2" x2="33.8" y2="85.3"/>
		<line class="st3" x1="121" y1="44.2" x2="121" y2="85.3"/>
		<rect x="6.4" y="7.2" class="st3" width="140.3" height="109.8"/>
	</g>
</g>
</svg>
